PathFileType	4	(X/Y/Z)	/Users/itak/Documents/Research/Walk-IL/dataset/trc/00207_00008.trc
DataRate	CameraRate	NumFrames	NumMarkers	Units	OrigDataRate	OrigDataStartFrame	OrigNumFrames
100.000000	100.000000	4	53	mm	100.000000	385	514
Frame#	Time	RPSI			LPSI			L3			STRN			T10			C7			CLAV			RBAK			LBAK			LSHO			LUPA			LAEL			LAOL			LWTS			LWPS			LFRA			LIFD			LHPS			LHTS			RSHO			RUPA			RAEL			RAOL			RWTS			RWPS			RFRA			RIFD			RHTS			RHPS			RBHD			LFHD			RFHD			LBHD			LHIP			RHIP			RASI			LASI			LKNE			LTHI			LANK			LTIP			LTOE			LMT1			LMT5			LHEE			RKNE			RTHI			RANK			RTIP			RTOE			RMT1			RMT5			RHEE			
		X1	Y1	Z1	X2	Y2	Z2	X3	Y3	Z3	X4	Y4	Z4	X5	Y5	Z5	X6	Y6	Z6	X7	Y7	Z7	X8	Y8	Z8	X9	Y9	Z9	X10	Y10	Z10	X11	Y11	Z11	X12	Y12	Z12	X13	Y13	Z13	X14	Y14	Z14	X15	Y15	Z15	X16	Y16	Z16	X17	Y17	Z17	X18	Y18	Z18	X19	Y19	Z19	X20	Y20	Z20	X21	Y21	Z21	X22	Y22	Z22	X23	Y23	Z23	X24	Y24	Z24	X25	Y25	Z25	X26	Y26	Z26	X27	Y27	Z27	X28	Y28	Z28	X29	Y29	Z29	X30	Y30	Z30	X31	Y31	Z31	X32	Y32	Z32	X33	Y33	Z33	X34	Y34	Z34	X35	Y35	Z35	X36	Y36	Z36	X37	Y37	Z37	X38	Y38	Z38	X39	Y39	Z39	X40	Y40	Z40	X41	Y41	Z41	X42	Y42	Z42	X43	Y43	Z43	X44	Y44	Z44	X45	Y45	Z45	X46	Y46	Z46	X47	Y47	Z47	X48	Y48	Z48	X49	Y49	Z49	X50	Y50	Z50	X51	Y51	Z51	X52	Y52	Z52	X53	Y53	Z53	

386	3.85	292.2536010742188	1041.484375	667.6447143554688	416.3719787597656	1044.342529296875	668.7708740234375	350.7718200683594	1078.877075195312	666.7981567382812	359.2560119628906	1309.29833984375	912.98388671875	355.8232116699219	1229.414916992188	617.6449584960938	373.4880065917969	1502.259521484375	660.8697509765625	372.6145324707031	1419.866088867188	874.5714721679688	258.7245178222656	1326.542602539062	611.2218017578125	473.1961975097656	1475.416015625	654.6453857421875	553.0477294921875	1469.325805664062	730.343505859375	623.6610107421875	1335.8671875	701.6979370117188	645.3096313476562	1120.969604492188	721.9749145507812	565.176513671875	1100.120483398438	687.0783081054688	641.8575439453125	901.1048583984375	857.8290405273438	666.3251953125	871.9813232421875	772.3026123046875	664.4136352539062	1011.91064453125	742.6808471679688	626.2488403320312	721.7139282226562	892.2649536132812	669.781005859375	805.5664672851562	800.705322265625	667.0447387695312	824.0794067382812	871.7915649414062	194.1466979980469	1494.077392578125	730.834228515625	123.5517578125	1429.179931640625	716.380859375	55.17655944824219	1145.9189453125	713.296630859375	152.3739624023438	1131.686157226562	714.756591796875	51.54837036132812	929.096923828125	869.9029541015625	8.201241493225098	909.5127563476562	793.2225952148438	30.6786937713623	1077.077270507812	742.23828125	58.72886657714844	738.23828125	898.1641235351562	36.36588668823242	837.5658569335938	900.32421875	4.183906078338623	828.8353271484375	826.992919921875	304.2798156738281	1673.23974609375	698.8397216796875	438.0327453613281	1729.711669921875	861.2572021484375	310.2283630371094	1735.6865234375	862.916748046875	441.4698486328125	1674.186157226562	689.76513671875	533.2066650390625	996.2448120117188	782.052734375	159.0494537353516	999.3410034179688	815.833251953125	212.2711486816406	1042.443725585938	894.828369140625	470.0581665039062	1038.908203125	903.3717041015625	497.7383422851562	511.1478576660156	941.7938232421875	526.564453125	649.3424682617188	901.0502319335938	509.0050354003906	42.24470520019531	900.6558227539062	513.7884521484375	279.0775146484375	933.55322265625	477.633056640625	45.40991973876953	1119.88232421875	430.6587524414062	45.96635437011719	1068.452270507812	543.6708984375	38.40384674072266	1008.940795898438	443.0788879394531	41.77589797973633	847.094482421875	163.9257354736328	495.5556640625	877.5559692382812	152.9046630859375	771.5145263671875	881.85595703125	154.7694091796875	211.5829467773438	469.3973083496094	173.0972290039062	384.9493103027344	817.2247314453125	166.6755981445312	45.2840461730957	611.9900512695312	215.2562866210938	85.15571594238281	577.1421508789062	110.6968307495117	121.122314453125	528.4607543945312	227.6935882568359	245.0558624267578	445.7016296386719	
387	3.86	295.2652893066406	1043.049560546875	672.7606201171875	419.4503173828125	1045.817749023438	674.5717163085938	354.0645446777344	1080.556640625	672.4176635742188	360.8182983398438	1310.067260742188	919.6253662109375	359.8466491699219	1231.41015625	624.0283813476562	376.931884765625	1503.857788085938	668.476318359375	374.4421691894531	1420.789184570312	881.694580078125	262.7630615234375	1328.486572265625	617.2178344726562	476.8692932128906	1477.378051757812	663.0084838867188	555.9544067382812	1471.096069335938	739.4088134765625	627.2247924804688	1337.911499023438	711.34521484375	649.3482666015625	1122.976928710938	731.9292602539062	569.816650390625	1101.892333984375	696.0051879882812	644.6432495117188	904.2503051757812	869.438232421875	670.05224609375	874.3041381835938	784.4751586914062	668.384521484375	1014.00732421875	753.58740234375	629.1701049804688	725.3088989257812	905.7357788085938	673.3004760742188	808.1820068359375	813.625244140625	669.92724609375	827.49267578125	884.4492797851562	197.09326171875	1495.440185546875	736.787353515625	126.7154083251953	1430.43505859375	721.685546875	58.20230102539062	1146.922607421875	718.7113037109375	155.3987274169922	1132.8603515625	720.6267700195312	54.99742126464844	932.1754760742188	878.2222290039062	11.8765697479248	911.1937255859375	801.7884521484375	33.78279876708984	1078.104370117188	748.2941284179688	62.64379119873047	742.0426025390625	909.8794555664062	39.99755096435547	841.2882080078125	910.15576171875	8.021783828735352	831.0989379882812	836.9038696289062	307.5084838867188	1674.849853515625	706.1320190429688	440.8690795898438	1730.911499023438	868.996337890625	313.1074829101562	1737.296020507812	870.214599609375	444.7234497070312	1675.4130859375	697.3945922851562	535.6123657226562	997.0986938476562	788.4763793945312	160.3829345703125	1001.707946777344	820.4547119140625	214.1605224609375	1043.728515625	899.2777099609375	471.9406127929688	1039.437377929688	909.4165649414062	498.5295715332031	510.9094848632812	944.2532958984375	527.6636352539062	649.431640625	904.8724975585938	508.9106140136719	42.4531135559082	900.78515625	514.176513671875	278.8726501464844	934.8367309570312	477.6557312011719	45.23840713500977	1120.162963867188	430.61572265625	45.8875732421875	1068.65380859375	543.6441040039062	38.39083099365234	1009.004821777344	443.0054626464844	41.98386764526367	847.2381591796875	166.6112518310547	497.9420471191406	889.5820922851562	154.5554962158203	773.6055908203125	888.7589721679688	158.8380432128906	207.3495178222656	486.5611267089844	175.9660339355469	386.6388549804688	830.97216796875	166.3482055664062	47.0282096862793	635.69921875	216.3395538330078	84.18547058105469	599.4892578125	112.674690246582	120.7736358642578	549.3799438476562	232.5153961181641	238.4444427490234	461.7168579101562	
388	3.87	298.2049560546875	1044.6181640625	677.5630493164062	422.4043273925781	1047.280639648438	680.283935546875	357.2333679199219	1082.2265625	677.8800048828125	362.2893371582031	1310.826171875	926.1441650390625	363.735107421875	1233.364990234375	630.2821655273438	380.2463989257812	1505.433471679688	675.929931640625	376.1458129882812	1421.686157226562	888.635009765625	266.6687622070312	1330.391479492188	623.09033203125	480.3922729492188	1479.304077148438	671.1863403320312	558.7015991210938	1472.845703125	748.287841796875	630.6393432617188	1339.945190429688	720.8572998046875	653.2958984375	1125.002319335938	741.8485107421875	574.38818359375	1103.637451171875	704.8934326171875	647.3088989257812	907.3873901367188	880.9482421875	673.7276611328125	876.680908203125	796.5775146484375	672.2730712890625	1016.145263671875	764.4624633789062	631.8352661132812	728.85009765625	918.9348754882812	676.7330322265625	810.8384399414062	826.42431640625	672.6376342773438	830.8753051757812	896.9790649414062	199.922119140625	1496.785766601562	742.5851440429688	129.7650451660156	1431.687377929688	726.8394165039062	61.26435852050781	1147.858642578125	723.9652709960938	158.4644317626953	1134.027587890625	726.3914794921875	58.40479278564453	935.3121948242188	886.4654541015625	15.66229724884033	912.86279296875	810.2574462890625	36.93473052978516	1079.070190429688	754.1951293945312	66.58917236328125	745.9974365234375	921.665771484375	43.59414291381836	845.1019287109375	919.9493408203125	11.96787166595459	833.3818359375	846.7481079101562	310.5918579101562	1676.430297851562	713.2611694335938	443.5421142578125	1732.076049804688	876.5933837890625	315.8177185058594	1738.841186523438	877.3634643554688	447.8285522460938	1676.630493164062	704.8966674804688	537.88916015625	997.87548828125	794.6498413085938	161.5913391113281	1004.195251464844	824.9722900390625	215.9578399658203	1044.962280273438	903.5770874023438	473.7486877441406	1039.918701171875	915.2588500976562	499.2703857421875	510.6720275878906	946.4841918945312	528.7205810546875	649.494140625	908.434326171875	508.8269958496094	42.64748001098633	900.8916625976562	514.5490112304688	278.6802368164062	935.9981689453125	477.6692504882812	45.11178207397461	1120.406982421875	430.568115234375	45.80945205688477	1068.82763671875	543.6148681640625	38.38409423828125	1009.05908203125	442.9618835449219	42.21086120605469	847.3485717773438	169.0296478271484	500.4517211914062	901.0257568359375	156.0197448730469	775.8023071289062	895.4163208007812	162.8729858398438	201.8889007568359	504.2422790527344	178.5680694580078	388.3070983886719	844.3731689453125	166.2673492431641	48.45535659790039	660.101318359375	217.5848846435547	82.61978149414062	622.5082397460938	114.716194152832	119.4909973144531	570.8328857421875	237.2338714599609	230.5708923339844	478.2873840332031	
389	3.88	301.0802917480469	1046.179931640625	682.0770263671875	425.2422790527344	1048.725341796875	685.9131469726562	360.2835693359375	1083.879150390625	683.1895751953125	363.6831970214844	1311.569213867188	932.5536499023438	367.4852294921875	1235.273193359375	636.408447265625	383.4409484863281	1507.000854492188	683.2236938476562	377.7297668457031	1422.54931640625	895.4016723632812	270.4368286132812	1332.251220703125	628.8421630859375	483.758544921875	1481.179809570312	679.1632690429688	561.2951049804688	1474.557250976562	756.9771118164062	633.8984375	1341.94580078125	730.2203369140625	657.1409301757812	1127.024658203125	751.7153930664062	578.8767700195312	1105.338134765625	713.72998046875	649.8413696289062	910.4961547851562	892.345458984375	677.342529296875	879.0904541015625	808.5989990234375	676.0701293945312	1018.303527832031	775.2906494140625	634.2560424804688	732.3193969726562	931.859130859375	680.08056640625	813.5164794921875	839.0943603515625	675.173828125	834.2140502929688	909.3713989257812	202.6362457275391	1498.10791015625	748.2470092773438	132.7018432617188	1432.924560546875	731.86767578125	64.34946441650391	1148.724731445312	729.0774536132812	161.5568695068359	1135.180541992188	732.05224609375	61.76704406738281	938.4835205078125	894.6118774414062	19.54452514648438	914.5133666992188	818.6121826171875	40.12468719482422	1079.972534179688	759.9539184570312	70.56651306152344	750.0762939453125	933.4605712890625	47.15745544433594	848.9771118164062	929.6676635742188	16.02047348022461	835.6669921875	856.4961547851562	313.5386657714844	1677.971313476562	720.22119140625	446.0540771484375	1733.205688476562	884.0421142578125	318.3611450195312	1740.323120117188	884.3524169921875	450.7938232421875	1677.82763671875	712.271728515625	540.0353393554688	998.5677490234375	800.5753784179688	162.7422180175781	1006.735168457031	829.376708984375	217.6763000488281	1046.145629882812	907.740478515625	475.4906616210938	1040.348266601562	920.906494140625	499.9740295410156	510.4359130859375	948.4943237304688	529.7412109375	649.5255737304688	911.7276000976562	508.7498168945312	42.82404327392578	900.9761962890625	514.9098510742188	278.4981079101562	937.0369262695312	477.6728515625	45.01707077026367	1120.61572265625	430.5133056640625	45.73043060302734	1068.974487304688	543.5841064453125	38.38352203369141	1009.104675292969	442.9497680664062	42.46136856079102	847.4212036132812	171.1816864013672	503.0451965332031	911.8734130859375	157.3118438720703	778.0843505859375	901.8193359375	166.8640441894531	195.3157043457031	522.4232177734375	180.8901824951172	389.9430541992188	857.3906860351562	166.3866424560547	49.55055999755859	685.0350952148438	218.9096527099609	80.517578125	646.134033203125	116.7830352783203	117.3587112426758	592.6766357421875	241.8381500244141	221.5654754638672	495.4504699707031	
